# Blender v2.83.1 OBJ File: 'FullFolder.blend'
# www.blender.org
mtllib FullFolder.mtl
o Cube
v 1.733383 0.597474 -1.733383
v 1.733383 -0.221856 -1.733383
v 1.733383 0.597474 1.733383
v 1.733383 -0.221856 1.733383
v -1.733383 0.597474 -1.733383
v -1.733383 -0.221856 -1.733383
v -1.733383 0.597474 1.733383
v -1.733383 -0.221856 1.733383
v 1.505005 0.477544 -1.643654
v -1.696239 0.477544 1.616217
v 1.505005 0.477544 1.616217
v -1.696239 0.477544 -1.643654
v 1.516912 -0.094459 -1.643654
v 1.516912 -0.094459 1.616217
v -1.696239 -0.094459 -1.643654
v -1.696239 -0.094459 1.616217
v -1.943670 0.346813 1.733383
v -1.943670 0.031749 -1.733383
v -1.943670 0.031749 1.733383
v -1.943670 0.346813 -1.733383
v -1.733383 -0.128444 1.733383
v -1.733383 0.511528 1.733383
v -1.733383 0.511528 -1.733383
v 1.733383 0.511528 -1.733383
v 1.733383 0.511528 1.733383
v -1.733383 -0.128444 -1.733383
v 1.733383 -0.128444 1.733383
v 1.733383 -0.128444 -1.733383
v -1.733383 -0.221856 -1.733383
v -1.943670 0.031749 -1.733383
v -1.943670 0.031749 1.733383
v -1.733383 -0.221856 1.733383
v -1.733383 0.597474 1.733383
v -1.943670 0.346813 1.733383
v -1.943670 0.346813 -1.733383
v -1.733383 0.597474 -1.733383
v -1.818305 0.191542 1.733383
v 1.550213 0.191542 -1.702607
v 1.550213 0.191542 1.691454
v -1.855541 0.191542 -1.733383
v -1.993401 0.189281 1.733383
v -1.993401 0.189281 -1.733383
v -1.781161 0.191542 1.691454
v -1.818397 0.191542 -1.702607
v -1.818305 0.351535 1.733383
v -1.976274 0.268047 1.733383
v -1.781161 0.334543 1.662190
v 1.531376 0.334543 -1.683407
v 1.531376 0.334543 1.662190
v -1.855541 0.309337 -1.733383
v -1.976274 0.268047 -1.733383
v -1.818397 0.296826 -1.683407
v 1.535750 0.048541 -1.683407
v 1.535750 0.048541 1.662190
v -1.855541 0.073748 -1.733383
v -1.976274 0.110515 -1.733383
v -1.818397 0.086258 -1.683407
v -1.818305 0.031549 1.733383
v -1.976274 0.110515 1.733383
v -1.781161 0.048542 1.662190
v -1.733383 -0.221856 0.639135
v 1.733383 0.597474 0.639135
v -1.733383 0.597474 0.639135
v 1.733383 -0.221856 0.639135
v 1.733383 0.511528 0.639135
v 1.733383 -0.128444 0.639135
v -1.943670 0.346813 0.639135
v -1.943670 0.031749 0.639135
v 1.505005 0.477544 0.639135
v 1.516912 -0.094459 0.639135
v -1.733383 -0.221856 0.639135
v -1.943670 0.031749 0.639135
v -1.733383 0.597474 0.639135
v -1.943670 0.346813 0.639135
v -1.993401 0.189281 0.639135
v 1.550213 0.191542 0.639135
v -1.976274 0.268047 0.639135
v 1.531376 0.334543 0.639135
v 1.535750 0.048541 0.639135
v -1.976274 0.110515 0.639135
v -1.733383 -0.221856 1.603664
v 1.733383 0.597474 1.603664
v 1.733383 0.511528 1.603664
v 1.733383 -0.128444 1.603664
v 1.505005 0.477544 1.603664
v 1.516912 -0.094459 1.603664
v -1.733383 -0.221856 1.603664
v -1.943670 0.346813 1.603664
v 1.550213 0.191542 1.603664
v 1.531376 0.334543 1.603664
v 1.535750 0.048541 1.603664
v -1.733383 0.597474 1.603664
v 1.733383 -0.221856 1.603664
v -1.943670 0.346813 1.603664
v -1.943670 0.031749 1.603664
v -1.943670 0.031749 1.603664
v -1.733383 0.597474 1.603664
v -1.993401 0.189281 1.603664
v -1.976274 0.268047 1.603664
v -1.976274 0.110515 1.603664
v 1.947661 0.597474 0.752146
v 1.947661 0.511528 0.752146
v 1.947661 0.597474 1.490652
v 1.947661 0.511528 1.490652
vt 0.625000 0.740646
vt 0.875000 0.740646
vt 0.875000 0.750000
vt 0.625000 0.750000
vt 0.548516 0.750000
vt 0.625000 1.000000
vt 0.548516 1.000000
vt 0.375000 1.000000
vt 0.452382 1.000000
vt 0.452382 1.000000
vt 0.452382 1.000000
vt 0.375000 1.000000
vt 0.125000 0.740646
vt 0.375000 0.740646
vt 0.375000 0.750000
vt 0.125000 0.750000
vt 0.548516 0.740646
vt 0.548516 0.250000
vt 0.625000 0.250000
vt 0.625000 0.500000
vt 0.548516 0.500000
vt 0.519298 0.269148
vt 0.538147 0.269148
vt 0.538147 0.500000
vt 0.519298 0.500000
vt 0.519298 0.740646
vt 0.538147 0.740646
vt 0.538147 0.750000
vt 0.519298 0.750000
vt 0.476415 0.250000
vt 0.452382 0.250000
vt 0.452382 0.250000
vt 0.476415 0.250000
vt 0.538147 0.980852
vt 0.519298 0.980852
vt 0.452382 0.750000
vt 0.524483 1.000000
vt 0.548516 1.000000
vt 0.524483 1.000000
vt 0.452382 0.740646
vt 0.375000 0.250000
vt 0.452382 0.500000
vt 0.375000 0.500000
vt 0.875000 0.671090
vt 0.875000 0.500000
vt 0.875000 0.500000
vt 0.875000 0.671090
vt 0.524483 0.078910
vt 0.548516 0.078910
vt 0.548516 0.250000
vt 0.524483 0.250000
vt 0.375000 0.250000
vt 0.452382 0.250000
vt 0.548516 0.250000
vt 0.625000 0.250000
vt 0.125000 0.750000
vt 0.125000 0.740646
vt 0.274258 0.039455
vt 0.538147 0.671090
vt 0.548516 0.671090
vt 0.481600 0.269148
vt 0.462751 0.269148
vt 0.462751 0.750000
vt 0.462751 0.980852
vt 0.462751 0.740646
vt 0.462751 0.500000
vt 0.125000 0.750000
vt 0.125000 0.740646
vt 0.226191 0.039455
vt 0.452382 0.078910
vt 0.875000 0.500000
vt 0.875000 0.671090
vt 0.625000 1.000000
vt 0.548516 1.000000
vt 0.500449 0.269148
vt 0.500449 0.250000
vt 0.524483 0.250000
vt 0.481600 0.980852
vt 0.500449 0.980852
vt 0.500449 1.000000
vt 0.476415 1.000000
vt 0.476415 0.078910
vt 0.500449 0.078910
vt 0.500449 0.250000
vt 0.500449 1.000000
vt 0.476415 1.000000
vt 0.481600 0.750000
vt 0.500449 0.750000
vt 0.481600 0.740646
vt 0.500449 0.740646
vt 0.500449 0.500000
vt 0.481600 0.500000
vt 0.452382 0.009354
vt 0.476415 0.009354
vt 0.481600 0.671090
vt 0.462751 0.671090
vt 0.519298 0.671090
vt 0.500449 0.671090
vt 0.500449 0.009354
vt 0.524483 0.009354
vt 0.875000 0.740646
vt 0.875000 0.740646
vt 0.212784 0.002339
vt 0.125000 0.500000
vt 0.125000 0.671090
vt 0.125000 0.671090
vt 0.125000 0.500000
vt 0.452382 0.671090
vt 0.548516 0.009354
vt 0.274258 0.004677
vt 0.125000 0.500000
vt 0.125000 0.671090
vt 0.375000 0.671090
vt 0.625000 0.671090
vt 0.875000 0.750000
vt 0.524483 0.000000
vt 0.548516 0.000000
vt 0.548516 0.000000
vt 0.452382 0.000000
vt 0.452382 0.000000
vt 0.875000 0.750000
vt 0.476415 0.000000
vt 0.500449 0.000000
vt 0.548516 0.671090
vt 0.548516 0.740646
vt 0.625000 0.671090
vt 0.625000 0.740646
vn 0.0000 1.0000 0.0000
vn 0.0000 0.0000 1.0000
vn 0.0000 -1.0000 0.0000
vn 1.0000 0.0000 0.0000
vn 0.0000 0.0000 -1.0000
vn -0.0014 0.2389 -0.9710
vn 0.9834 0.1814 0.0000
vn 0.0000 0.3061 0.9520
vn -0.9240 0.3825 0.0000
vn 0.8147 -0.3919 0.4274
vn 0.0000 -0.9352 -0.3542
vn 0.1472 -0.9891 0.0000
vn 0.0000 -0.9604 0.2786
vn 0.7383 0.4159 -0.5310
vn -0.0000 0.9604 0.2786
vn 0.1551 0.9879 0.0000
vn 0.0000 0.9352 -0.3542
vn -0.7698 -0.6383 0.0000
vn -0.7661 0.6427 0.0000
vn 0.7392 0.0578 -0.6711
vn 0.8383 -0.0524 0.5427
vn -0.9772 -0.2125 0.0000
vn -0.0000 -0.2005 0.9797
vn 0.9949 -0.1006 0.0000
vn -0.0009 -0.1528 -0.9883
vn 0.7383 -0.4159 -0.5310
vn 0.8383 0.0524 0.5427
vn -0.9772 0.2125 0.0000
vn 0.0000 0.2005 0.9797
vn 0.9914 0.1306 0.0000
vn -0.0009 0.1528 -0.9883
vn -0.0014 -0.2389 -0.9710
vn 0.9914 -0.1306 0.0000
vn 0.0000 -0.3061 0.9520
vn -0.9240 -0.3825 0.0000
vn 0.8147 0.3919 0.4274
vn 0.7392 -0.0578 -0.6711
vn 0.4665 0.0000 -0.8845
vn 0.4665 0.0000 0.8845
usemtl Material.001
s off
f 82/1/1 92/2/1 7/3/1 3/4/1
f 25/5/2 3/4/2 7/6/2 22/7/2
f 8/8/2 21/9/2 19/10/2 31/11/2 32/12/2
f 81/13/3 93/14/3 4/15/3 8/16/3
f 83/17/4 82/1/4 3/4/4 25/5/4
f 23/18/5 5/19/5 1/20/5 24/21/5
f 52/22/6 12/23/6 9/24/6 48/25/6
f 90/26/7 85/27/7 11/28/7 49/29/7
f 55/30/5 26/31/5 18/32/5 56/33/5
f 49/29/8 11/28/8 10/34/8 47/35/8
f 4/15/2 27/36/2 21/9/2 8/8/2
f 45/37/2 22/7/2 17/38/2 46/39/2
f 93/14/4 84/40/4 27/36/4 4/15/4
f 6/41/5 26/31/5 28/42/5 2/43/5
f 63/44/2 5/45/2 36/46/2 73/47/2
f 77/48/9 67/49/9 20/50/9 51/51/9
f 26/31/5 6/41/5 29/52/5 30/53/5 18/32/5
f 5/19/5 23/18/5 20/50/5 35/54/5 36/55/5
f 81/13/2 8/16/2 32/56/2 87/57/2
f 67/49/2 74/58/2 35/54/2 20/50/2
f 47/35/10 10/34/10 22/7/10 45/37/10
f 9/24/11 12/23/11 23/18/11 24/21/11
f 69/59/12 9/24/12 24/21/12 65/60/12
f 10/34/13 11/28/13 25/5/13 22/7/13
f 57/61/14 15/62/14 26/31/14 55/30/14
f 14/63/15 16/64/15 21/9/15 27/36/15
f 86/65/16 14/63/16 27/36/16 84/40/16
f 15/62/17 13/66/17 28/42/17 26/31/17
f 87/57/18 32/56/18 31/67/18 96/68/18
f 72/69/2 68/70/2 18/32/2 30/53/2
f 73/47/19 36/46/19 35/71/19 74/72/19
f 22/7/2 7/6/2 33/73/2 34/74/2 17/38/2
f 52/22/20 44/75/20 40/76/20 50/77/20
f 60/78/21 43/79/21 37/80/21 58/81/21
f 80/82/22 75/83/22 42/84/22 56/33/22
f 58/81/2 37/80/2 41/85/2 59/86/2
f 54/87/23 39/88/23 43/79/23 60/78/23
f 50/77/5 40/76/5 42/84/5 51/51/5
f 91/89/24 89/90/24 39/88/24 54/87/24
f 57/61/25 44/75/25 38/91/25 53/92/25
f 23/18/5 50/77/5 51/51/5 20/50/5
f 12/23/26 52/22/26 50/77/26 23/18/26
f 43/79/27 47/35/27 45/37/27 37/80/27
f 75/83/28 77/48/28 51/51/28 42/84/28
f 37/80/2 45/37/2 46/39/2 41/85/2
f 39/88/29 49/29/29 47/35/29 43/79/29
f 89/90/30 90/26/30 49/29/30 39/88/30
f 44/75/31 52/22/31 48/25/31 38/91/31
f 15/62/32 57/61/32 53/92/32 13/66/32
f 86/65/33 91/89/33 54/87/33 14/63/33
f 14/63/34 54/87/34 60/78/34 16/64/34
f 21/9/2 58/81/2 59/86/2 19/10/2
f 68/70/35 80/82/35 56/33/35 18/32/35
f 16/64/36 60/78/36 58/81/36 21/9/36
f 44/75/37 57/61/37 55/30/37 40/76/37
f 40/76/5 55/30/5 56/33/5 42/84/5
f 95/93/35 100/94/35 80/82/35 68/70/35
f 13/66/33 53/92/33 79/95/33 70/96/33
f 38/91/30 48/25/30 78/97/30 76/98/30
f 98/99/28 99/100/28 77/48/28 75/83/28
f 53/92/24 38/91/24 76/98/24 79/95/24
f 100/94/22 98/99/22 75/83/22 80/82/22
f 97/101/19 73/47/19 74/72/19 88/102/19
f 96/103/2 95/93/2 68/70/2 72/69/2
f 29/104/18 71/105/18 72/106/18 30/107/18
f 13/66/16 70/96/16 66/108/16 28/42/16
f 85/27/12 69/59/12 65/60/12 83/17/12
f 94/109/2 88/110/2 74/58/2 67/49/2
f 6/111/2 61/112/2 71/105/2 29/104/2
f 99/100/9 94/109/9 67/49/9 77/48/9
f 92/2/2 63/44/2 73/47/2 97/101/2
f 2/43/4 28/42/4 66/108/4 64/113/4
f 48/25/7 9/24/7 69/59/7 78/97/7
f 24/21/4 1/20/4 62/114/4 65/60/4
f 6/111/3 2/43/3 64/113/3 61/112/3
f 1/20/1 5/45/1 63/44/1 62/114/1
f 7/3/2 92/2/2 97/101/2 33/115/2
f 46/116/9 17/117/9 94/109/9 99/100/9
f 17/117/2 34/118/2 88/110/2 94/109/2
f 11/28/12 85/27/12 83/17/12 25/5/12
f 31/119/2 19/120/2 95/93/2 96/103/2
f 33/115/19 97/101/19 88/102/19 34/121/19
f 59/122/22 41/123/22 98/99/22 100/94/22
f 41/123/28 46/116/28 99/100/28 98/99/28
f 19/120/35 59/122/35 100/94/35 95/93/35
f 70/96/33 79/95/33 91/89/33 86/65/33
f 76/98/30 78/97/30 90/26/30 89/90/30
f 79/95/24 76/98/24 89/90/24 91/89/24
f 71/105/18 87/57/18 96/68/18 72/106/18
f 70/96/16 86/65/16 84/40/16 66/108/16
f 61/112/2 81/13/2 87/57/2 71/105/2
f 64/113/4 66/108/4 84/40/4 93/14/4
f 78/97/7 69/59/7 85/27/7 90/26/7
f 83/17/3 65/60/3 102/124/3 104/125/3
f 61/112/3 64/113/3 93/14/3 81/13/3
f 62/114/1 63/44/1 92/2/1 82/1/1
f 102/124/4 101/126/4 103/127/4 104/125/4
f 62/114/1 82/1/1 103/127/1 101/126/1
f 65/60/38 62/114/38 101/126/38 102/124/38
f 82/1/39 83/17/39 104/125/39 103/127/39
