# Blender v2.83.1 OBJ File: 'PizzaBox.blend'
# www.blender.org
mtllib PizzaBox.mtl
o Cube
v 1.060878 0.190584 -1.049993
v -1.072245 0.150901 1.072245
v 1.060878 0.148925 1.071353
v -1.072245 0.150901 -1.072245
v -1.060878 0.190584 -1.049993
v 1.072245 0.150901 1.072245
v -1.060878 0.148925 1.071353
v 1.072245 0.150901 -1.072245
v 1.057074 -0.187436 -1.057074
v -1.057074 -0.187436 1.057074
v 1.057074 -0.187436 1.057074
v -1.057074 -0.187436 -1.057074
v -1.072245 -0.209624 -1.072245
v -1.072245 -0.209624 1.072245
v 1.072245 -0.209624 -1.072245
v 1.072245 0.150901 -1.072245
v 1.072245 0.150901 1.072245
v 1.072245 -0.209624 1.072245
v -1.072245 0.150901 -1.072245
v -1.072245 0.150901 1.072245
v -1.087978 -0.212269 -1.087978
v -1.087978 -0.212269 1.087978
v 1.087978 -0.212269 -1.087978
v 1.087978 0.148295 -1.087978
v 1.087978 0.148295 1.087978
v 1.087978 -0.212269 1.087978
v -1.087978 0.148295 -1.087978
v -1.087978 0.148295 1.087978
vt 0.625000 0.500000
vt 0.875000 0.500000
vt 0.875000 0.750000
vt 0.625000 0.750000
vt 0.500000 0.750000
vt 0.625000 1.000000
vt 0.500000 1.000000
vt 0.500000 0.000000
vt 0.625000 0.000000
vt 0.625000 0.250000
vt 0.500000 0.250000
vt 0.500000 0.750000
vt 0.500000 1.000000
vt 0.500000 1.000000
vt 0.500000 0.750000
vt 0.500000 0.500000
vt 0.500000 0.500000
vt 0.500000 0.250000
vt 0.500000 0.000000
vt 0.125000 0.500000
vt 0.375000 0.500000
vt 0.375000 0.750000
vt 0.125000 0.750000
vt 0.500000 1.000000
vt 0.500000 0.750000
vt 0.375000 0.500000
vt 0.375000 0.750000
vt 0.500000 0.500000
vt 0.500000 0.250000
vt 0.500000 0.000000
vt 0.500000 0.500000
vt 0.500000 0.250000
vt 0.500000 0.000000
vt 0.375000 0.250000
vt 0.375000 0.000000
vt 0.375000 1.000000
vt 0.125000 0.750000
vt 0.125000 0.500000
vn 0.0000 0.9998 0.0196
vn 0.0000 -0.0424 0.9991
vn -0.9999 -0.0106 -0.0001
vn 0.0000 0.0000 1.0000
vn 0.9999 -0.0106 -0.0001
vn 0.0000 0.0187 -0.9998
vn -0.9990 0.0448 0.0000
vn 0.0000 0.0448 -0.9990
vn 0.0000 0.0448 0.9990
vn 0.9990 0.0448 0.0000
vn 0.0000 -1.0000 0.0000
vn 0.0000 0.9866 0.1634
vn -0.1658 -0.9862 0.0000
vn 0.0000 0.9866 -0.1634
vn -0.1634 0.9866 0.0000
vn 0.0000 0.0000 -1.0000
vn 1.0000 0.0000 0.0000
vn -1.0000 0.0000 0.0000
vn 0.1658 -0.9862 0.0000
vn 0.1634 0.9866 0.0000
vn 0.0000 -0.9862 -0.1658
vn 0.0000 -0.9862 0.1658
usemtl Material
s off
f 1/1/1 5/2/1 7/3/1 3/4/1
f 11/5/2 3/4/2 7/6/2 10/7/2
f 10/8/3 7/9/3 5/10/3 12/11/3
f 17/12/4 20/13/4 2/14/4 6/15/4
f 9/16/5 1/1/5 3/4/5 11/5/5
f 12/11/6 5/10/6 1/1/6 9/16/6
f 9/16/7 11/5/7 17/12/7 16/17/7
f 11/5/8 10/7/8 20/13/8 17/12/8
f 12/11/9 9/16/9 16/17/9 19/18/9
f 10/8/10 12/11/10 19/18/10 20/19/10
f 13/20/11 15/21/11 18/22/11 14/23/11
f 17/12/12 20/13/12 28/24/12 25/25/12
f 18/22/13 15/21/13 23/26/13 26/27/13
f 19/18/14 16/17/14 24/28/14 27/29/14
f 20/19/15 19/18/15 27/29/15 28/30/15
f 16/17/4 17/12/4 6/15/4 8/31/4
f 20/19/4 19/18/4 4/32/4 2/33/4
f 19/18/4 16/17/4 8/31/4 4/32/4
f 21/34/16 27/29/16 24/28/16 23/26/16
f 23/26/17 24/28/17 25/25/17 26/27/17
f 22/35/18 28/30/18 27/29/18 21/34/18
f 26/27/4 25/25/4 28/24/4 22/36/4
f 13/20/19 14/23/19 22/37/19 21/38/19
f 16/17/20 17/12/20 25/25/20 24/28/20
f 14/23/21 18/22/21 26/27/21 22/37/21
f 15/21/22 13/20/22 21/38/22 23/26/22
